<?xml version="1.0" encoding="utf-8"?>
<!-- Generator: Adobe Illustrator 24.3.0, SVG Export Plug-In . SVG Version: 6.00 Build 0)  -->
<svg version="1.1" xmlns="http://www.w3.org/2000/svg" xmlns:xlink="http://www.w3.org/1999/xlink" x="0px" y="0px"
	 viewBox="0 0 616.49 505.29" style="enable-background:new 0 0 616.49 505.29;" xml:space="preserve">
<style type="text/css">
	.st0{fill:url(#SVGID_1_);stroke:url(#SVGID_2_);stroke-width:2;stroke-miterlimit:10;}
	.st1{fill:url(#SVGID_3_);stroke:url(#SVGID_4_);stroke-width:2;stroke-miterlimit:10;}
	.st2{fill:url(#SVGID_5_);stroke:url(#SVGID_6_);stroke-width:2;stroke-miterlimit:10;}
	.st3{fill:url(#SVGID_7_);stroke:url(#SVGID_8_);stroke-width:2;stroke-miterlimit:10;}
	.st4{fill:url(#SVGID_9_);stroke:url(#SVGID_10_);stroke-width:2;stroke-miterlimit:10;}
	.st5{fill:url(#SVGID_11_);stroke:url(#SVGID_12_);stroke-width:2;stroke-miterlimit:10;}
	.st6{fill:url(#SVGID_13_);stroke:url(#SVGID_14_);stroke-width:2;stroke-miterlimit:10;}
	.st7{fill:url(#SVGID_15_);stroke:url(#SVGID_16_);stroke-width:2;stroke-miterlimit:10;}
	.st8{fill:url(#SVGID_17_);stroke:url(#SVGID_18_);stroke-width:2;stroke-miterlimit:10;}
	.st9{fill:url(#SVGID_19_);stroke:url(#SVGID_20_);stroke-width:2;stroke-miterlimit:10;}
	.st10{fill:url(#SVGID_21_);stroke:url(#SVGID_22_);stroke-width:2;stroke-miterlimit:10;}
	.st11{fill:url(#SVGID_23_);stroke:url(#SVGID_24_);stroke-width:2;stroke-miterlimit:10;}
	.st12{fill:url(#SVGID_25_);stroke:url(#SVGID_26_);stroke-width:2;stroke-miterlimit:10;}
	.st13{fill:url(#SVGID_27_);stroke:url(#SVGID_28_);stroke-width:2;stroke-miterlimit:10;}
	.st14{fill:url(#SVGID_29_);stroke:url(#SVGID_30_);stroke-width:2;stroke-miterlimit:10;}
	.st15{fill:url(#SVGID_31_);stroke:url(#SVGID_32_);stroke-width:2;stroke-miterlimit:10;}
	.st16{fill:url(#SVGID_33_);stroke:url(#SVGID_34_);stroke-width:2;stroke-miterlimit:10;}
	.st17{fill:url(#SVGID_35_);stroke:url(#SVGID_36_);stroke-width:2;stroke-miterlimit:10;}
	.st18{fill:url(#SVGID_37_);stroke:url(#SVGID_38_);stroke-width:2;stroke-miterlimit:10;}
	.st19{fill:url(#SVGID_39_);stroke:#009FE3;stroke-miterlimit:10;}
	.st20{fill:url(#SVGID_40_);stroke:url(#SVGID_41_);stroke-width:2;stroke-miterlimit:10;}
	.st21{fill:url(#SVGID_42_);stroke:url(#SVGID_43_);stroke-width:2;stroke-miterlimit:10;}
	.st22{fill:url(#SVGID_44_);}
	.st23{fill:url(#SVGID_45_);}
	.st24{fill:url(#SVGID_46_);}
	.st25{fill:url(#SVGID_47_);}
	.st26{fill:url(#SVGID_48_);}
</style>
<g id="Capa_1">
	<linearGradient id="SVGID_1_" gradientUnits="userSpaceOnUse" x1="95.7481" y1="260.5425" x2="139.7047" y2="260.5425">
		<stop  offset="0" style="stop-color:#312783"/>
		<stop  offset="1" style="stop-color:#009FE3"/>
	</linearGradient>
	<linearGradient id="SVGID_2_" gradientUnits="userSpaceOnUse" x1="94.7481" y1="260.5425" x2="140.7786" y2="260.5425">
		<stop  offset="0" style="stop-color:#312783"/>
		<stop  offset="1" style="stop-color:#009FE3"/>
	</linearGradient>
	<path class="st0" d="M137.93,262.22c-2.88,0.81-5.4,2.69-6.79,5.35c-1.84,3.53-5.08,6.33-9.21,7.51
		c-7.73,2.23-15.81-2.01-18.44-9.52l35.61-10.24c-2.49-10.12-11.52-16.75-21.34-16.75c-4.86,0-9.93,1.63-14.49,5.27
		c-4.08,3.27-6.75,8.06-7.35,13.26c-2,17.21,13.35,28.74,27.91,24.55c9.24-2.66,15.38-10.85,15.87-19.93L137.93,262.22z
		 M102.84,258.04c0.93-5.56,4.95-10.37,10.72-12.03c5.64-1.63,11.45,0.18,15.21,4.17c0.42,0.45,0.23,1.19-0.36,1.36
		c-4.62,1.32-20.9,6.01-24.83,7.14C103.17,258.8,102.77,258.46,102.84,258.04z"/>
	<linearGradient id="SVGID_3_" gradientUnits="userSpaceOnUse" x1="132.7195" y1="247.2072" x2="132.7388" y2="247.2072">
		<stop  offset="0" style="stop-color:#312783"/>
		<stop  offset="1" style="stop-color:#009FE3"/>
	</linearGradient>
	<linearGradient id="SVGID_4_" gradientUnits="userSpaceOnUse" x1="132.4429" y1="247.2072" x2="133.0154" y2="247.2072">
		<stop  offset="0" style="stop-color:#312783"/>
		<stop  offset="1" style="stop-color:#009FE3"/>
	</linearGradient>
	<line class="st1" x1="132.74" y1="247.2" x2="132.72" y2="247.21"/>
	<linearGradient id="SVGID_5_" gradientUnits="userSpaceOnUse" x1="162.2697" y1="255.3725" x2="206.1747" y2="255.3725">
		<stop  offset="0" style="stop-color:#312783"/>
		<stop  offset="1" style="stop-color:#009FE3"/>
	</linearGradient>
	<linearGradient id="SVGID_6_" gradientUnits="userSpaceOnUse" x1="161.2697" y1="255.3725" x2="207.1825" y2="255.3725">
		<stop  offset="0" style="stop-color:#312783"/>
		<stop  offset="1" style="stop-color:#009FE3"/>
	</linearGradient>
	<path class="st2" d="M206.02,256.61l-1.57,0.44c-2.88,0.82-5.39,2.7-6.78,5.35c-1.85,3.53-5.09,6.33-9.21,7.52
		c-7.74,2.23-15.82-2.02-18.45-9.52l35.61-10.25c-0.96-3.89-2.88-7.27-5.46-9.95v-0.01c-4.1-4.28-9.83-6.79-15.87-6.79
		c-4.86,0-9.93,1.63-14.49,5.28c-4.09,3.26-6.76,8.05-7.36,13.25c-1.99,17.21,13.35,28.74,27.92,24.55
		c8.99-2.59,15.05-10.43,15.81-19.22C206.13,257.04,206.08,256.82,206.02,256.61z M169.36,252.87c0.93-5.55,4.95-10.37,10.73-12.03
		c5.64-1.62,11.44,0.18,15.2,4.18c0.42,0.44,0.23,1.18-0.36,1.35c-4.62,1.33-20.9,6.01-24.83,7.15
		C169.69,253.63,169.29,253.29,169.36,252.87z"/>
	<linearGradient id="SVGID_7_" gradientUnits="userSpaceOnUse" x1="210.9617" y1="253.5567" x2="254.6372" y2="253.5567">
		<stop  offset="0" style="stop-color:#312783"/>
		<stop  offset="1" style="stop-color:#009FE3"/>
	</linearGradient>
	<linearGradient id="SVGID_8_" gradientUnits="userSpaceOnUse" x1="209.9617" y1="253.5567" x2="255.6372" y2="253.5567">
		<stop  offset="0" style="stop-color:#312783"/>
		<stop  offset="1" style="stop-color:#009FE3"/>
	</linearGradient>
	<path class="st3" d="M254.63,255.74c-1.02,10.38-9.38,18.83-20.14,19.64c-6.02,0.46-11.67-1.57-15.91-5.22
		c-0.27-0.23-0.53-0.47-0.78-0.71c-0.26-0.24-0.51-0.48-0.75-0.73c-0.23-0.24-0.46-0.49-0.67-0.75c-0.66-0.74-1.26-1.53-1.8-2.36
		c-0.2-0.31-0.41-0.63-0.6-0.96c-1.46-2.51-2.46-5.37-2.86-8.5c-0.05-0.36-0.08-0.71-0.11-1.07c-0.83-12,8.18-22.45,20.19-23.35
		c8.09-0.61,15.49,3.26,19.76,9.52c0.25,0.37,0.05,0.89-0.38,1.02l-5.55,1.58c-0.25,0.07-0.51-0.02-0.68-0.21
		c-3.57-4.15-9.28-6.15-14.92-4.8c-0.22,0.05-0.45,0.11-0.68,0.17c-0.5,0.15-0.99,0.32-1.46,0.5c-0.17,0.08-0.33,0.14-0.5,0.22
		c-0.25,0.1-0.5,0.22-0.74,0.35c-0.17,0.07-0.34,0.17-0.51,0.27c-5,2.75-8.21,8.26-7.75,14.34c0.26,3.46,1.67,6.57,3.85,8.96v0.01
		c1.17,1.3,2.57,2.39,4.12,3.21c0.18,0.1,0.36,0.2,0.54,0.28c0.37,0.18,0.74,0.34,1.12,0.48c0.09,0.05,0.17,0.07,0.24,0.1
		c0.12,0.05,0.25,0.09,0.37,0.13c2.84,0.98,5.99,1.12,9.09,0.24c3.9-1.13,7-3.68,8.89-6.93c1.72-2.97,4.46-5.2,7.77-6.13
		C254.22,254.91,254.67,255.27,254.63,255.74z"/>
	<linearGradient id="SVGID_9_" gradientUnits="userSpaceOnUse" x1="223.1986" y1="225.4531" x2="282.7047" y2="225.4531">
		<stop  offset="0" style="stop-color:#312783"/>
		<stop  offset="1" style="stop-color:#009FE3"/>
	</linearGradient>
	<linearGradient id="SVGID_10_" gradientUnits="userSpaceOnUse" x1="222.1986" y1="225.4531" x2="283.7047" y2="225.4531">
		<stop  offset="0" style="stop-color:#312783"/>
		<stop  offset="1" style="stop-color:#009FE3"/>
	</linearGradient>
	<path class="st4" d="M282.58,268.95c0.12,0.35-0.07,0.73-0.42,0.85c-0.8,0.26-1.62,0.39-2.42,0.39c-3.25,0-6.26-2.06-7.34-5.32
		l-14.3-43.57c-0.12-0.34-0.48-0.53-0.82-0.43l-22.18,6.33c-0.36,0.1-0.73-0.11-0.83-0.46c-0.15-0.52-0.22-1.04-0.22-1.55
		c0-2.44,1.61-4.69,4.07-5.39l17.15-4.89c0.37-0.1,0.57-0.49,0.45-0.85l-5.93-18.05c-0.05-0.17-0.17-0.31-0.33-0.39
		c-1-0.49-4.96-2.26-10.05-2.25h-0.08c-0.87,0.1-17.11,1.97-16.09-4.81c1.01-6.66,10.39-10.68,22.94-5.45
		c1.18,0.51,2.45,0.77,3.74,0.8c3.85,0.09,11.94,0.15,14.89-0.78c4.83-1.51,7.57,2.34,7.85,2.76c0.02,0.03,0.03,0.05,0.05,0.08
		c0.16,0.35,1.13,2.82-4.06,4.48c-3.48,1.1-8.39,2.15-10.23,2.53c-0.4,0.08-0.63,0.48-0.5,0.86l5.9,17.96
		c0.11,0.35,0.47,0.54,0.82,0.44l17.02-4.86c0.35-0.1,0.72,0.11,0.82,0.46c0.15,0.52,0.22,1.04,0.22,1.55
		c0,2.44-1.61,4.68-4.07,5.38l-11.99,3.42c-0.36,0.11-0.57,0.5-0.45,0.86L282.58,268.95z"/>
	<linearGradient id="SVGID_11_" gradientUnits="userSpaceOnUse" x1="118.9009" y1="231.1269" x2="164.225" y2="231.1269">
		<stop  offset="0" style="stop-color:#312783"/>
		<stop  offset="1" style="stop-color:#009FE3"/>
	</linearGradient>
	<linearGradient id="SVGID_12_" gradientUnits="userSpaceOnUse" x1="117.6235" y1="231.1269" x2="165.5023" y2="231.1269">
		<stop  offset="0" style="stop-color:#312783"/>
		<stop  offset="1" style="stop-color:#009FE3"/>
	</linearGradient>
	<path class="st5" d="M164.23,277.29l-2.3,0.97c-3.59,1.52-7.67-0.35-9.12-4.17l-30.9-81.39l-3-7.91l1.79-0.75
		c3.87-1.63,8.27,0.38,9.83,4.5l1.37,3.59L164.23,277.29z"/>
	<linearGradient id="SVGID_13_" gradientUnits="userSpaceOnUse" x1="282.9047" y1="246.0789" x2="310.2141" y2="246.0789">
		<stop  offset="0" style="stop-color:#312783"/>
		<stop  offset="1" style="stop-color:#009FE3"/>
	</linearGradient>
	<linearGradient id="SVGID_14_" gradientUnits="userSpaceOnUse" x1="281.5997" y1="246.0053" x2="311.2141" y2="246.0053">
		<stop  offset="0" style="stop-color:#312783"/>
		<stop  offset="1" style="stop-color:#009FE3"/>
	</linearGradient>
	<path class="st6" d="M309.45,231.72c-3.23-1.41-7.38,6.74-9.86,13.8l8.55,23.05l-1.76,0.54c-3.67,1.15-7.63-0.58-8.85-3.86
		L282.9,225.8l1.68-0.52c3.72-1.17,7.72,0.59,8.95,3.91l2.23,6c2.07-5.12,4.82-9.34,8.57-12.5l1.62,0.63
		C309.5,224.74,311.35,232.55,309.45,231.72z"/>
	<linearGradient id="SVGID_15_" gradientUnits="userSpaceOnUse" x1="313.5315" y1="245.826" x2="357.3079" y2="245.826">
		<stop  offset="0" style="stop-color:#312783"/>
		<stop  offset="1" style="stop-color:#009FE3"/>
	</linearGradient>
	<linearGradient id="SVGID_16_" gradientUnits="userSpaceOnUse" x1="312.5315" y1="245.826" x2="358.3079" y2="245.826">
		<stop  offset="0" style="stop-color:#312783"/>
		<stop  offset="1" style="stop-color:#009FE3"/>
	</linearGradient>
	<path class="st7" d="M357.24,244.18c-0.91-12.06-11.41-21.09-23.47-20.18c-12.06,0.9-21.09,11.41-20.18,23.47
		c0.91,12.06,11.42,21.09,23.47,20.18C349.12,266.74,358.15,256.23,357.24,244.18z M336.55,260.88
		c-8.31,0.62-15.56-5.61-16.19-13.92c-0.62-8.31,5.61-15.56,13.92-16.19c8.31-0.62,15.56,5.61,16.19,13.92
		C351.09,253,344.86,260.25,336.55,260.88z"/>
	<linearGradient id="SVGID_17_" gradientUnits="userSpaceOnUse" x1="345.9847" y1="226.7465" x2="408.5879" y2="226.7465">
		<stop  offset="0" style="stop-color:#312783"/>
		<stop  offset="1" style="stop-color:#009FE3"/>
	</linearGradient>
	<linearGradient id="SVGID_18_" gradientUnits="userSpaceOnUse" x1="344.7194" y1="226.7465" x2="409.5879" y2="226.7465">
		<stop  offset="0" style="stop-color:#312783"/>
		<stop  offset="1" style="stop-color:#009FE3"/>
	</linearGradient>
	<path class="st8" d="M408.52,240.32c-0.9-12.06-11.41-21.1-23.47-20.19c-7.12,0.54-13.18,4.43-16.77,9.99l-12.04-35.36
		c-1.34-3.95-5.63-6.06-9.58-4.72l-0.68,0.24l19.91,58.49l0.17,0.5c2.2,6.25,7.13,11.12,13.27,13.3c2.8,1.02,5.85,1.46,9.01,1.22
		C400.4,262.88,409.43,252.37,408.52,240.32z M387.83,257.01c-4.63,0.35-8.92-1.43-11.93-4.51v-0.01c-2.4-2.44-3.97-5.71-4.25-9.39
		c-0.07-0.99-0.06-1.96,0.06-2.9c0.82-7.04,6.52-12.74,13.85-13.3c8.32-0.62,15.57,5.61,16.19,13.93
		C402.38,249.13,396.15,256.38,387.83,257.01z"/>
	<linearGradient id="SVGID_19_" gradientUnits="userSpaceOnUse" x1="410.0647" y1="240.256" x2="431.8947" y2="240.256">
		<stop  offset="0" style="stop-color:#312783"/>
		<stop  offset="1" style="stop-color:#009FE3"/>
	</linearGradient>
	<linearGradient id="SVGID_20_" gradientUnits="userSpaceOnUse" x1="408.7952" y1="240.256" x2="432.8947" y2="240.256">
		<stop  offset="0" style="stop-color:#312783"/>
		<stop  offset="1" style="stop-color:#009FE3"/>
	</linearGradient>
	<path class="st9" d="M431.89,259.02v0.01c-0.09,0.31-0.17,0.63-0.25,0.95l-0.68,0.23c-3.67,1.25-7.65-0.71-8.89-4.37l-2.03-5.95
		v-0.01l-9.98-29.32l0.68-0.23c3.95-1.35,8.24,0.77,9.58,4.71L431.89,259.02z"/>
	<linearGradient id="SVGID_21_" gradientUnits="userSpaceOnUse" x1="404.4347" y1="212.896" x2="415.9147" y2="212.896">
		<stop  offset="0" style="stop-color:#312783"/>
		<stop  offset="1" style="stop-color:#009FE3"/>
	</linearGradient>
	<linearGradient id="SVGID_22_" gradientUnits="userSpaceOnUse" x1="403.0708" y1="212.896" x2="417.2785" y2="212.896">
		<stop  offset="0" style="stop-color:#312783"/>
		<stop  offset="1" style="stop-color:#009FE3"/>
	</linearGradient>
	<path class="st10" d="M415.91,217.17c-3.86,1.1-8.02-0.42-9.28-3.38l-2.2-5.17c3.86-1.1,8.02,0.42,9.28,3.38L415.91,217.17z"/>
	<linearGradient id="SVGID_23_" gradientUnits="userSpaceOnUse" x1="423.3347" y1="223.2468" x2="526.1147" y2="223.2468">
		<stop  offset="0" style="stop-color:#312783"/>
		<stop  offset="1" style="stop-color:#009FE3"/>
	</linearGradient>
	<linearGradient id="SVGID_24_" gradientUnits="userSpaceOnUse" x1="422.0666" y1="223.2468" x2="530.6443" y2="223.2468">
		<stop  offset="0" style="stop-color:#312783"/>
		<stop  offset="1" style="stop-color:#009FE3"/>
	</linearGradient>
	<path class="st11" d="M526.11,315.1c-5.25,1.55-21.4,4.79-32.38-15.35c-12.02-22.02-21.12-51.92-49.02-62.53l7.07,20.77l-2.59,0.89
		c-3.67,1.25-7.65-0.72-8.9-4.39l-3.09-9.09v-0.01l-13.87-40.75l2.07-0.71c3.95-1.34,8.24,0.76,9.58,4.71l4.64,13.61
		c2.09-0.57,12.55-7.01,22.07-20.27h0.01c9.43-13.12,17.95-32.92,16.55-60.31c0,0-36.76,24.45-40.29,17.02
		c-1.73-3.66-7.28-5.47,3.05-10.97c10.32-5.5,39.27-20.58,48.15-16.96c6.3,2.58,5.6,35.85-12.27,65.22h-0.01
		c-7.3,11.99-17.46,23.32-31.18,31.65c0,0,30.09,21.05,44.37,41.31C515.22,304.61,522.45,314.52,526.11,315.1z"/>
	<linearGradient id="SVGID_25_" gradientUnits="userSpaceOnUse" x1="475.0681" y1="231.9925" x2="519.0247" y2="231.9925">
		<stop  offset="0" style="stop-color:#312783"/>
		<stop  offset="1" style="stop-color:#009FE3"/>
	</linearGradient>
	<linearGradient id="SVGID_26_" gradientUnits="userSpaceOnUse" x1="474.0681" y1="231.9925" x2="520.0986" y2="231.9925">
		<stop  offset="0" style="stop-color:#312783"/>
		<stop  offset="1" style="stop-color:#009FE3"/>
	</linearGradient>
	<path class="st12" d="M517.25,233.67c-2.88,0.81-5.4,2.7-6.79,5.35c-1.84,3.53-5.08,6.33-9.21,7.52
		c-7.73,2.22-15.81-2.02-18.44-9.52l35.61-10.25c-2.49-10.12-11.52-16.75-21.34-16.75c-4.86,0-9.93,1.63-14.49,5.27
		c-4.08,3.27-6.75,8.06-7.35,13.26c-2,17.21,13.35,28.74,27.91,24.55c9.24-2.66,15.38-10.85,15.87-19.93L517.25,233.67z
		 M482.16,229.49c0.93-5.56,4.95-10.37,10.72-12.03c5.64-1.63,11.45,0.18,15.21,4.17c0.42,0.45,0.23,1.19-0.36,1.36
		c-4.62,1.33-20.9,6.01-24.83,7.14C482.49,230.25,482.09,229.91,482.16,229.49z"/>
	<linearGradient id="SVGID_27_" gradientUnits="userSpaceOnUse" x1="137.3347" y1="203.106" x2="206.9047" y2="203.106">
		<stop  offset="0" style="stop-color:#312783"/>
		<stop  offset="1" style="stop-color:#009FE3"/>
	</linearGradient>
	<linearGradient id="SVGID_28_" gradientUnits="userSpaceOnUse" x1="135.7612" y1="203.0488" x2="208.7786" y2="203.0488">
		<stop  offset="0" style="stop-color:#312783"/>
		<stop  offset="1" style="stop-color:#009FE3"/>
	</linearGradient>
	<path class="st13" d="M206.9,223.53l-17.86-0.09c-11.58-13.32-27.51-22.51-45.2-25.66l-6.51-15.1
		C166.08,184.89,191.52,200.44,206.9,223.53z"/>
	<linearGradient id="SVGID_29_" gradientUnits="userSpaceOnUse" x1="520.0223" y1="218.2068" x2="520.0415" y2="218.2068">
		<stop  offset="0" style="stop-color:#312783"/>
		<stop  offset="1" style="stop-color:#009FE3"/>
	</linearGradient>
	<linearGradient id="SVGID_30_" gradientUnits="userSpaceOnUse" x1="519.7457" y1="218.2068" x2="520.3181" y2="218.2068">
		<stop  offset="0" style="stop-color:#312783"/>
		<stop  offset="1" style="stop-color:#009FE3"/>
	</linearGradient>
	<line class="st14" x1="520.04" y1="218.2" x2="520.02" y2="218.21"/>
	<linearGradient id="SVGID_31_" gradientUnits="userSpaceOnUse" x1="424.3894" y1="273.706" x2="594.4692" y2="273.706">
		<stop  offset="0" style="stop-color:#312783"/>
		<stop  offset="1" style="stop-color:#009FE3"/>
	</linearGradient>
	<linearGradient id="SVGID_32_" gradientUnits="userSpaceOnUse" x1="423.3894" y1="273.706" x2="595.4692" y2="273.706">
		<stop  offset="0" style="stop-color:#312783"/>
		<stop  offset="1" style="stop-color:#009FE3"/>
	</linearGradient>
	<path class="st15" d="M515.82,358.5c-46.84,3.53-87.66-31.57-91.19-78.4c-0.37-4.96-0.32-9.85,0.14-14.63
		c3.66,0,6.98,1.43,9.45,3.76c2.47,2.34,4.09,5.59,4.34,9.23c0.01,0.2,0.03,0.39,0.04,0.58c0,0,0.72,9.56,3.96,18.66
		c4.33,12.16,30.27,49.93,72.03,46.68c36.64-2.86,68.35-35.97,65.34-75.99c-2.94-39.03-36.97-68.28-75.99-65.34
		c-6.27,0.47-12.29,1.74-17.97,3.72c-0.25,0.09-0.45-0.2-0.28-0.41c3.12-3.83,5.89-7.82,8.33-11.89c1.91-3.18,5.25-5.27,8.95-5.56
		h0.06c46.83-3.53,87.66,31.57,91.19,78.4C597.75,314.14,562.65,354.97,515.82,358.5z"/>
	<linearGradient id="SVGID_33_" gradientUnits="userSpaceOnUse" x1="38.0392" y1="275.4454" x2="221.5347" y2="275.4454">
		<stop  offset="0" style="stop-color:#312783"/>
		<stop  offset="1" style="stop-color:#009FE3"/>
	</linearGradient>
	<linearGradient id="SVGID_34_" gradientUnits="userSpaceOnUse" x1="37.0392" y1="275.3743" x2="222.6718" y2="275.3743">
		<stop  offset="0" style="stop-color:#312783"/>
		<stop  offset="1" style="stop-color:#009FE3"/>
	</linearGradient>
	<path class="st16" d="M221.53,286.43c-5.49,42.41-40.11,76.6-84.44,79.94c-50.74,3.82-94.97-34.21-98.79-84.94
		c-3.53-46.78,28.52-88.03,73.31-97.17l5.77,13.35c-41.86,6.94-70.57,46.19-64.33,88.33c6.32,42.58,45.96,71.99,88.55,65.67
		c34.66-5.14,60.58-32.35,65.62-65.25L221.53,286.43z"/>
	<linearGradient id="SVGID_35_" gradientUnits="userSpaceOnUse" x1="23.2413" y1="240.1259" x2="23.2413" y2="240.1259">
		<stop  offset="0" style="stop-color:#312783"/>
		<stop  offset="1" style="stop-color:#009FE3"/>
	</linearGradient>
	<linearGradient id="SVGID_36_" gradientUnits="userSpaceOnUse" x1="23.2413" y1="240.1259" x2="23.2413" y2="240.1259">
		<stop  offset="0" style="stop-color:#FFFFFF"/>
		<stop  offset="1" style="stop-color:#FFFFFF"/>
	</linearGradient>
	<path class="st17" d="M23.24,240.13"/>
	<linearGradient id="SVGID_37_" gradientUnits="userSpaceOnUse" x1="0" y1="240.1259" x2="0" y2="240.1259">
		<stop  offset="0" style="stop-color:#312783"/>
		<stop  offset="1" style="stop-color:#009FE3"/>
	</linearGradient>
	<linearGradient id="SVGID_38_" gradientUnits="userSpaceOnUse" x1="0" y1="240.1259" x2="0" y2="240.1259">
		<stop  offset="0" style="stop-color:#FFFFFF"/>
		<stop  offset="1" style="stop-color:#FFFFFF"/>
	</linearGradient>
	<path class="st18" d="M0,240.13"/>
	<linearGradient id="SVGID_39_" gradientUnits="userSpaceOnUse" x1="-68.473" y1="223.6224" x2="-68.473" y2="223.6224">
		<stop  offset="0" style="stop-color:#312783"/>
		<stop  offset="1" style="stop-color:#009FE3"/>
	</linearGradient>
	<path class="st19" d="M-68.47,223.62"/>
	<linearGradient id="SVGID_40_" gradientUnits="userSpaceOnUse" x1="424.5448" y1="384.2589" x2="424.5448" y2="384.2589">
		<stop  offset="0" style="stop-color:#312783"/>
		<stop  offset="1" style="stop-color:#009FE3"/>
	</linearGradient>
	<linearGradient id="SVGID_41_" gradientUnits="userSpaceOnUse" x1="424.5448" y1="384.2589" x2="424.5448" y2="384.2589">
		<stop  offset="0" style="stop-color:#FFFFFF"/>
		<stop  offset="1" style="stop-color:#FFFFFF"/>
	</linearGradient>
	<path class="st20" d="M424.54,384.26"/>
</g>
<g id="fondo">
	<linearGradient id="SVGID_42_" gradientUnits="userSpaceOnUse" x1="192.0918" y1="221.6104" x2="192.4418" y2="221.6104">
		<stop  offset="0" style="stop-color:#FFFFFF"/>
		<stop  offset="1" style="stop-color:#000000"/>
	</linearGradient>
	<linearGradient id="SVGID_43_" gradientUnits="userSpaceOnUse" x1="192.0918" y1="221.6104" x2="192.4418" y2="221.6104">
		<stop  offset="0" style="stop-color:#312783"/>
		<stop  offset="1" style="stop-color:#009FE3"/>
	</linearGradient>
	<line class="st21" x1="192.44" y1="221.61" x2="192.09" y2="221.61"/>
	<g>
		<g>
			<linearGradient id="SVGID_44_" gradientUnits="userSpaceOnUse" x1="157.2897" y1="92.52" x2="421.7497" y2="92.52">
				<stop  offset="0" style="stop-color:#312783"/>
				<stop  offset="1" style="stop-color:#009FE3"/>
			</linearGradient>
			<path class="st22" d="M160.48,120.69c-0.95-1.5-0.8-1.89-0.61-2.23l0.46-1.15c0.32-0.76,0.71-1.45,1.17-2.07
				c0.93-1.22,2.08-2.22,3.17-3.28c2.28-2,4.55-4.02,6.86-6c2.38-1.89,4.73-3.81,7.14-5.67c2.47-1.77,4.91-3.59,7.41-5.32
				c10.06-6.85,20.79-12.77,32.03-17.53c22.57-9.29,46.99-14.18,71.41-14.08c24.4,0.17,48.81,4.97,71.25,14.49
				c11.19,4.81,21.95,10.61,31.92,17.55c2.49,1.74,4.91,3.57,7.36,5.35c2.39,1.86,4.72,3.8,7.08,5.7c2.29,1.99,4.53,4.02,6.79,6.02
				l3.25,3.17c0.57,0.49,0.95,1.2,1.09,2.14l0.25,1.36c0.08,0.45,0.23,0.83,0.04,1.56l-0.17,0.17c-0.38,0.12-0.67,0.15-0.92,0.15
				l-0.7-0.08c-0.46-0.06-0.93-0.1-1.4-0.14c-0.96-0.06-1.68-0.36-2.19-0.89l-3.28-2.93l-6.82-5.54c-2.36-1.73-4.69-3.5-7.07-5.2
				c-2.44-1.61-4.84-3.28-7.3-4.84c-2.51-1.49-4.98-3.04-7.52-4.48c-2.57-1.38-5.09-2.85-7.69-4.16c-2.63-1.25-5.21-2.6-7.87-3.78
				c-2.69-1.12-5.33-2.35-8.04-3.39c-2.73-1-5.43-2.08-8.19-3.01l-4.14-1.36c-1.39-0.44-2.75-0.95-4.16-1.3l-4.2-1.16
				c-1.41-0.37-2.79-0.82-4.22-1.1c-2.84-0.61-5.66-1.32-8.52-1.84c-11.41-2.18-23.03-3.24-34.65-3.2
				c-11.61,0.11-23.22,1.13-34.62,3.37c-11.39,2.21-22.57,5.54-33.32,9.93c-10.79,4.27-21.22,9.55-31.03,15.83
				c-2.45,1.58-4.83,3.26-7.25,4.88c-2.36,1.71-4.67,3.49-7.01,5.23l-6.76,5.56c-1.1,0.96-2.12,2.01-3.36,2.82
				c-0.63,0.4-1.33,0.72-2.09,0.98l-1.17,0.37c-0.36,0.16-0.75,0.29-2.24-0.71L160.48,120.69z"/>
			<linearGradient id="SVGID_45_" gradientUnits="userSpaceOnUse" x1="107.3653" y1="68.942" x2="474.6639" y2="68.942">
				<stop  offset="0" style="stop-color:#312783"/>
				<stop  offset="1" style="stop-color:#009FE3"/>
			</linearGradient>
			<path class="st23" d="M126.93,120.86c-1.9,0.3-2.65-0.3-3.31-0.96l-2.11-1.89c-1.4-1.27-2.73-2.58-3.98-3.96
				c-1.26-1.37-2.41-2.83-3.58-4.27c-1.17-1.44-2.3-2.92-3.45-4.37l-1.82-2.31l1.93-2.29c3.4-4.03,6.92-7.97,10.59-11.78l2.06-2.14
				l2.58,1.56l21.81,13.24l-4.75,0.53c4.58-4.53,9.38-8.84,14.36-12.93l-1.08,4.84l-11.18-22.84l-1.47-3l2.67-2.09
				c4.19-3.28,8.5-6.41,12.92-9.39l2.79-1.88l2.49,2.34l18.61,17.5l-5.37-0.53c5.4-3.45,10.97-6.65,16.67-9.59l-2.33,5.08
				l-3.09-12.34l-3.02-12.35l-0.89-3.62l3.37-1.61c4.84-2.31,9.76-4.46,14.75-6.45l3.41-1.35l2.08,3.03l14.46,21.1l-5.38-1.73
				c5.97-2.17,12.03-4.06,18.17-5.68l-3.44,4.61l-0.76-25.42l-0.11-3.78l3.68-0.87c5.29-1.25,10.62-2.32,15.99-3.19l3.64-0.59
				l1.41,3.41l9.74,23.66l-4.94-2.85c6.18-0.84,12.4-1.4,18.63-1.69l-4.39,3.83l4.62-25.08l0.7-3.81l3.86,0.01l4.05,0.01
				c1.34-0.01,2.74,0.06,4.1,0.08l8.25,0.22l3.64,0.1l0.66,3.67l4.54,25.18l-4.12-3.71c6.09,0.48,12.16,1.22,18.18,2.23l-4.89,2.73
				l9.74-23.5l1.39-3.35l3.55,0.68c5.49,1.05,10.94,2.3,16.33,3.74l3.39,0.91l-0.11,3.49l-0.81,25.6l-3.12-4.3
				c5.71,1.7,11.36,3.64,16.91,5.82l-5.13,1.58l14.41-20.95l1.98-2.88l3.19,1.36c5.22,2.23,10.34,4.67,15.37,7.26l2.94,1.52
				l-0.79,3.16l-6.25,24.83L389.86,68c5.08,2.82,10.02,5.86,14.83,9.06l-4.75,0.43l18.52-17.39l2.19-2.05l2.41,1.7
				c4.7,3.31,9.29,6.8,13.73,10.46l2.17,1.79l-1.22,2.48l-11.27,22.97l-0.84-3.98c4.24,3.69,8.35,7.54,12.3,11.55l-3.97-0.47
				l21.73-13.16l2.13-1.29l1.67,1.79c3.98,4.26,7.79,8.67,11.44,13.21l1.46,1.82l-1.42,1.8l-2.71,3.44
				c-0.91,1.14-1.76,2.33-2.82,3.35c-1.03,1.05-2.29,1.92-3.52,2.81l-1.82,1.36c-0.6,0.46-1.21,0.91-2.07,1.17l-0.19-0.14
				c0.02-0.91,0.29-1.62,0.58-2.32l0.84-2.12c0.55-1.42,1.06-2.87,1.81-4.13c0.72-1.29,1.66-2.4,2.54-3.57l2.66-3.48l0.05,3.77
				c-3.62-4.38-7.4-8.62-11.33-12.72l3.94,0.52l-21.54,13.47l-2.21,1.38l-1.89-1.87c-3.87-3.83-7.91-7.51-12.07-11.03l-2-1.69
				l1.14-2.41l10.94-23.13l0.98,4.38c-4.35-3.48-8.83-6.79-13.44-9.94l4.71-0.36l-18.27,17.65l-2.22,2.14l-2.63-1.7
				c-4.7-3.04-9.5-5.89-14.41-8.53l-2.71-1.45l0.72-3.04l5.9-24.91l2.18,4.75c-4.89-2.45-9.87-4.71-14.91-6.8l5.24-1.54
				l-14.33,21.01l-1.95,2.86l-3.24-1.26c-5.33-2.07-10.75-3.91-16.24-5.52l-3.25-0.95l0.09-3.4l0.71-25.6l3.31,4.43
				c-5.2-1.36-10.44-2.55-15.72-3.53l4.97-2.7l-9.64,23.54l-1.36,3.32l-3.56-0.58c-5.77-0.94-11.58-1.63-17.4-2.06l-3.5-0.26
				l-0.64-3.47l-4.64-25.16l4.32,3.78l-7.93-0.18c-1.33-0.02-2.62-0.09-3.98-0.07l-4.05,0.01l4.56-3.81l-4.54,25.09l-0.66,3.66
				l-3.72,0.17c-5.96,0.27-11.9,0.8-17.81,1.6l-3.57,0.48l-1.36-3.33l-9.71-23.67l5.04,2.82c-5.15,0.83-10.27,1.85-15.35,3.04
				l3.57-4.65l0.73,25.43l0.11,3.67l-3.55,0.93c-5.87,1.54-11.67,3.34-17.38,5.41l-3.36,1.21l-2.01-2.94l-14.43-21.12l5.48,1.68
				c-4.8,1.9-9.53,3.96-14.19,6.18l2.48-5.22l3.01,12.36l2.94,12.37l0.83,3.49l-3.16,1.58c-5.49,2.75-10.85,5.75-16.06,8.99
				l-2.92,1.82l-2.44-2.35l-18.4-17.72l5.27,0.46c-4.28,2.82-8.47,5.79-12.55,8.9l1.2-5.08l10.91,22.97l1.37,2.88l-2.45,1.96
				c-4.84,3.88-9.5,7.97-13.96,12.28l-2.2,2.12l-2.55-1.59l-21.65-13.49l4.63-0.58c-3.59,3.64-7.05,7.41-10.39,11.29l0.11-4.6
				c1.12,1.48,2.27,2.94,3.37,4.43c1.1,1.49,2.23,2.97,3.24,4.54c1.03,1.55,1.97,3.17,2.84,4.84l1.3,2.51
				c0.47,0.81,0.86,1.68,0.1,3.44L126.93,120.86z"/>
			<linearGradient id="SVGID_46_" gradientUnits="userSpaceOnUse" x1="154.168" y1="412.0112" x2="428.6628" y2="412.0112">
				<stop  offset="0" style="stop-color:#312783"/>
				<stop  offset="1" style="stop-color:#009FE3"/>
			</linearGradient>
			<path class="st24" d="M157.54,381.65c0.76-0.49,1.23-0.7,1.57-0.77c0.34-0.07,0.49,0.05,0.7,0.11l1.21,0.41
				c0.79,0.29,1.5,0.66,2.15,1.08c1.3,0.85,2.37,1.95,3.54,2.94c2.32,2,4.68,3.96,7.08,5.86c4.81,3.8,9.78,7.39,14.9,10.75
				c10.23,6.73,21.06,12.5,32.26,17.32c11.16,4.9,22.78,8.76,34.65,11.34c11.87,2.59,23.99,3.84,36.1,3.77
				c24.3-0.25,48.62-5.66,71.32-14.66c11.37-4.49,22.29-10.11,32.48-16.8c5.08-3.36,9.94-7.05,14.48-11.08
				c1.14-1.01,2.27-2.02,3.34-3.09l1.63-1.59l1.57-1.64c1.07-1.08,2.05-2.23,3.05-3.37c0.47-0.59,1.17-1,2.09-1.24
				c0.45-0.13,0.9-0.27,1.35-0.41c0.45-0.14,0.82-0.35,1.58-0.27l0.19,0.14c0.32,0.72,0.22,1.15,0.21,1.63l-0.07,1.45
				c0,0.5-0.09,0.95-0.21,1.37c-0.14,0.4-0.37,0.74-0.62,1.05c-1.01,1.25-2.01,2.52-3.09,3.71l-1.59,1.81l-1.66,1.75
				c-1.09,1.18-2.24,2.3-3.4,3.41c-4.62,4.45-9.58,8.53-14.76,12.28c-5.18,3.76-10.6,7.15-16.19,10.22
				c-5.59,3.08-11.33,5.87-17.19,8.38c-2.93,1.24-5.88,2.45-8.87,3.56c-2.99,1.09-6.01,2.12-9.05,3.08
				c-6.08,1.92-12.24,3.56-18.46,4.93c-12.45,2.73-25.17,4.38-38,4.62c-12.85,0.28-25.71-1.18-38.22-3.94
				c-12.51-2.76-24.69-6.86-36.36-12.03c-11.64-5.26-22.7-11.69-33.13-18.97c-5.21-3.65-10.26-7.52-15.13-11.61
				c-2.43-2.04-4.81-4.15-7.16-6.29c-1.16-1.09-2.36-2.13-3.36-3.38c-0.49-0.64-0.89-1.37-1.23-2.16l-0.48-1.21
				c-0.07-0.21-0.2-0.36-0.14-0.7c0.06-0.35,0.25-0.82,0.73-1.59L157.54,381.65z"/>
			<linearGradient id="SVGID_47_" gradientUnits="userSpaceOnUse" x1="107.2612" y1="435.457" x2="474.6094" y2="435.457">
				<stop  offset="0" style="stop-color:#312783"/>
				<stop  offset="1" style="stop-color:#009FE3"/>
			</linearGradient>
			<path class="st25" d="M454.55,380.8c0.86-0.01,1.47,0.15,2,0.38c0.54,0.22,0.97,0.53,1.32,0.89l2.1,2.17
				c1.42,1.43,2.74,2.94,4.11,4.41c1.32,1.51,2.64,3.02,3.89,4.57c1.26,1.55,2.5,3.12,3.62,4.77l1.59,2.33l-1.69,2.1
				c-3.66,4.55-7.48,8.98-11.48,13.25l-2.06,2.2l-2.62-1.59l-21.73-13.16l4.85-0.57c-3.96,4.03-8.07,7.9-12.34,11.6l1.01-4.84
				l11.26,22.96l1.47,3l-2.62,2.13c-4.48,3.65-9.09,7.12-13.83,10.42l-2.85,1.98l-2.53-2.4l-18.43-17.49l5.34,0.48
				c-4.84,3.19-9.8,6.21-14.92,9.01l2.14-4.85l6.12,24.86l0.83,3.37l-3.1,1.59c-5.05,2.59-10.2,4.99-15.42,7.2l-3.32,1.4l-2.05-2.98
				l-14.4-20.96l5.32,1.64c-5.56,2.19-11.21,4.13-16.93,5.83l3.22-4.45l0.8,25.59l0.11,3.59l-3.49,0.94
				c-5.4,1.45-10.86,2.69-16.35,3.74l-3.65,0.7l-1.43-3.45l-9.73-23.51l5.03,2.8c-6.02,1-12.1,1.75-18.19,2.22l4.23-3.81
				l-2.28,12.59l-2.32,12.58l-0.67,3.64l-3.68,0.17c-2.74,0.12-5.49,0.21-8.24,0.24l-4.11,0.01l-4.05-0.01l-3.86-0.01l-0.68-3.77
				l-4.52-25.09l4.27,3.73c-6.23-0.3-12.44-0.88-18.61-1.72l4.78-2.76l-9.77,23.65l-1.36,3.29l-3.49-0.58
				c-5.35-0.89-10.68-1.96-15.96-3.22l-3.52-0.84l0.11-3.6l0.8-25.42l3.26,4.35c-6.14-1.62-12.19-3.53-18.14-5.7l5.04-1.62
				l-14.49,21.08l-1.93,2.81l-3.16-1.25c-4.99-1.98-9.88-4.16-14.7-6.5l-3.09-1.5l0.82-3.27l6.21-24.67l2.07,4.51
				c-5.68-2.94-11.23-6.14-16.61-9.58l4.72-0.47L164,449.41l-2.16,2.03l-2.41-1.63c-4.4-2.98-8.69-6.11-12.87-9.37l-2.3-1.8
				l1.26-2.57l11.21-22.83l0.92,4.09c-4.96-4.08-9.74-8.39-14.3-12.91l3.96,0.44l-21.82,13.22l-2.11,1.28l-1.68-1.75
				c-3.64-3.81-7.15-7.74-10.54-11.76l-1.61-1.92l1.6-1.88l9.39-11.04c1.54-1.86,3.34-3.5,5.33-4.98l2.94-2.27
				c0.98-0.75,1.89-1.56,3.16-2.07l0.18,0.15c-0.26,1.36-0.9,2.4-1.46,3.5l-1.7,3.3c-1.1,2.23-2.4,4.29-3.97,6.13l-9.27,11.14
				l-0.01-3.96c3.36,3.89,6.84,7.67,10.43,11.32l-3.94-0.49l21.63-13.53l2.2-1.37l1.9,1.83c4.48,4.31,9.16,8.42,14.01,12.3l2.13,1.7
				l-1.19,2.51l-10.88,22.99l-1.06-4.49c4.1,3.11,8.3,6.08,12.59,8.9l-4.69,0.4l18.38-17.73l2.19-2.11l2.63,1.63
				c5.23,3.24,10.61,6.24,16.11,8.99l2.86,1.43l-0.75,3.17l-5.86,24.76l-2.3-4.85c4.68,2.19,9.44,4.22,14.24,6.12L201.2,467
				l14.4-21.14l1.91-2.8l3.2,1.15c5.72,2.06,11.53,3.86,17.4,5.39l3.39,0.88l-0.1,3.52l-0.7,25.43l-3.43-4.47
				c5.08,1.19,10.21,2.2,15.37,3.04l-4.88,2.73l9.68-23.69l1.32-3.24l3.48,0.46c5.92,0.79,11.87,1.31,17.82,1.58l3.63,0.16
				l0.66,3.59l4.62,25.07l-4.55-3.79l4.05-0.01l3.98-0.03c2.64-0.04,5.29-0.13,7.93-0.26l-4.36,3.81l4.59-25.17l0.65-3.54l3.58-0.27
				c5.82-0.43,11.63-1.12,17.4-2.06l3.64-0.59l1.39,3.39l9.64,23.54l-5.08-2.75c5.28-0.99,10.52-2.16,15.7-3.53l-3.37,4.53
				l-0.71-25.59l-0.1-3.47l3.32-0.97c5.49-1.61,10.9-3.45,16.23-5.52l3.32-1.29l2,2.93l14.33,21.01l-5.36-1.58
				c5.04-2.11,10-4.4,14.86-6.87l-2.27,4.94l-6.02-24.88l-0.79-3.25l2.93-1.58c4.89-2.65,9.66-5.53,14.34-8.59l2.87-1.87l2.46,2.35
				l18.36,17.56l-5.36-0.42c4.58-3.16,9.03-6.49,13.35-9.98l-1.14,5.11l-10.94-23.12l-1.34-2.84l2.36-1.99
				c4.15-3.51,8.17-7.18,12.04-11l2.23-2.2l2.61,1.63l21.53,13.47l-4.68,0.61c3.92-4.08,7.69-8.31,11.31-12.68l-0.11,4.44
				c-1.25-1.56-2.38-3.2-3.5-4.86c-1.12-1.66-2.17-3.36-3.22-5.07c-1.01-1.74-2.06-3.44-3.01-5.22l-1.46-2.64
				c-0.24-0.44-0.41-0.94-0.46-1.52c-0.06-0.57-0.04-1.21,0.22-2.03L454.55,380.8z"/>
		</g>
	</g>
	<g>
		<linearGradient id="SVGID_48_" gradientUnits="userSpaceOnUse" x1="11.3506" y1="250.8766" x2="616.1487" y2="250.8766">
			<stop  offset="0" style="stop-color:#312783"/>
			<stop  offset="1" style="stop-color:#009FE3"/>
		</linearGradient>
		<path class="st26" d="M561.14,380.32l-100.64,0.65l-50.32,0.35l-50.32,0.48l-201.27,2.08l-50.32,0.49l-25.16,0.25l-12.58,0.12
			l-3.14,0.03l-1.57,0.01l-1.74-0.07l-3.48-0.15c-1.15-0.13-2.3-0.31-3.45-0.47l-1.73-0.25c-0.57-0.1-1.13-0.26-1.7-0.39l-3.39-0.84
			c-1.11-0.35-2.2-0.76-3.3-1.14l-1.65-0.59l-1.59-0.73l-3.16-1.49l-3.01-1.78c-0.5-0.31-1.01-0.58-1.49-0.91l-1.42-1.03
			c-0.93-0.7-1.91-1.35-2.8-2.1c-1.74-1.56-3.56-3.04-5.09-4.82l-1.19-1.29l-0.59-0.64l-0.54-0.69l-2.13-2.79
			c-2.63-3.86-5-7.97-6.52-12.43l-0.62-1.65c-0.2-0.55-0.32-1.13-0.48-1.7l-0.91-3.41c-0.23-1.15-0.39-2.32-0.59-3.48l-0.28-1.74
			c-0.07-0.58-0.08-1.17-0.13-1.76l-0.2-3.52c-0.04-1.12-0.03-2.12-0.04-3.18l-0.05-6.29l-0.22-25.16l-0.79-100.64l-0.18-25.16
			c0-0.54-0.02-1,0-1.62l0.07-1.81c0.06-1.2,0.09-2.41,0.19-3.61l0.52-3.59c0.1-0.6,0.16-1.2,0.29-1.79l0.44-1.76
			c0.3-1.17,0.57-2.35,0.92-3.51l1.23-3.42c0.38-1.15,0.91-2.24,1.43-3.33c0.54-1.08,1-2.21,1.62-3.25
			c1.25-2.07,2.44-4.19,3.95-6.08c1.38-2,3.04-3.76,4.68-5.54c0.81-0.89,1.76-1.66,2.64-2.49c0.9-0.81,1.78-1.64,2.77-2.34
			l2.91-2.17c1.01-0.66,2.07-1.26,3.1-1.89l1.56-0.93l1.63-0.79c1.09-0.52,2.18-1.05,3.29-1.54l3.42-1.22
			c0.57-0.19,1.14-0.42,1.72-0.59l1.76-0.44c1.18-0.29,2.34-0.6,3.53-0.85l3.58-0.52c0.6-0.08,1.19-0.18,1.79-0.24l1.81-0.09
			l3.61-0.15l402.54,3.26l50.32,0.33l25.16,0.17l12.58,0.08l3.14,0.02l1.57,0.01l1.68,0.09l3.35,0.19c1.11,0.15,2.21,0.34,3.32,0.51
			l1.66,0.27c0.55,0.11,1.09,0.27,1.63,0.41l3.25,0.85c1.06,0.36,2.1,0.77,3.15,1.15l1.57,0.59l1.51,0.72l3.01,1.47l2.86,1.75
			c0.47,0.3,0.96,0.57,1.42,0.89l1.34,1c0.88,0.68,1.81,1.31,2.65,2.04c1.64,1.51,3.36,2.94,4.8,4.66l1.12,1.24l0.56,0.62l0.51,0.67
			l2,2.68c2.46,3.71,4.67,7.64,6.06,11.89l0.57,1.57c0.18,0.53,0.29,1.08,0.44,1.61l0.82,3.24c0.21,1.09,0.35,2.2,0.53,3.3
			l0.25,1.65c0.07,0.55,0.07,1.11,0.11,1.67l0.16,3.34c0.03,1.08,0.01,2.11,0.01,3.16l-0.01,6.29l0.01,25.16l0.09,100.64
			l-0.09,25.16c0.02,1.02-0.04,2.14-0.11,3.26c-0.07,1.11-0.11,2.22-0.22,3.33l-0.53,3.3c-0.1,0.55-0.16,1.1-0.29,1.64l-0.43,1.61
			c-0.3,1.07-0.55,2.16-0.88,3.22l-1.17,3.12c-0.35,1.06-0.86,2.05-1.36,3.04c-0.51,0.99-0.94,2.02-1.52,2.96
			c-1.18,1.88-2.28,3.81-3.7,5.53c-1.28,1.81-2.83,3.41-4.35,5.02c-0.76,0.81-1.64,1.48-2.47,2.21c-0.84,0.72-1.68,1.44-2.62,2.03
			l-2.76,1.82c-0.96,0.54-1.96,1.02-2.93,1.52l-1.46,0.74l-1.53,0.59l-3.05,1.15l-3.14,0.86c-0.52,0.13-1.03,0.3-1.56,0.42
			l-1.59,0.29l-3.15,0.6c-1.07,0.1-2.13,0.22-3.18,0.35c-0.53,0.05-1.06,0.14-1.58,0.18l-1.59,0.05L561.14,380.32z M561.14,379.04
			c8.29-0.04,16.47-2.89,22.95-7.66c0.81-0.59,1.64-1.15,2.44-1.76l2.29-1.93c0.79-0.6,1.48-1.32,2.2-2.01l1.07-1.03
			c0.36-0.34,0.74-0.66,1.05-1.05l1.98-2.21l0.5-0.55l0.44-0.59l0.88-1.19c1.25-1.54,2.19-3.28,3.22-4.96
			c0.5-0.85,0.87-1.77,1.31-2.65c0.43-0.89,0.87-1.77,1.17-2.71l1-2.78c0.28-0.94,0.49-1.91,0.74-2.86l0.36-1.43
			c0.11-0.48,0.15-0.97,0.23-1.46l0.43-2.92c0.08-0.98,0.09-1.97,0.14-2.95c0.05-0.98,0.11-1.95,0.08-3.03l-0.09-25.16l0.09-100.64
			l0.01-25.16l-0.01-6.29c-0.01-1.04,0.01-2.11-0.02-3.13l-0.16-2.94c-0.03-0.49-0.03-0.98-0.09-1.47l-0.23-1.46
			c-0.16-0.97-0.28-1.94-0.46-2.91l-0.75-2.85c-0.13-0.47-0.23-0.96-0.39-1.42l-0.52-1.38c-1.23-3.73-3.23-7.16-5.41-10.41
			l-1.78-2.34l-0.45-0.58l-0.5-0.54l-1-1.08c-1.27-1.5-2.81-2.73-4.25-4.06c-0.75-0.63-1.57-1.17-2.35-1.77l-1.18-0.87
			c-0.4-0.28-0.84-0.51-1.25-0.76l-2.52-1.5l-2.66-1.25l-1.33-0.62l-1.38-0.49c-0.92-0.32-1.84-0.67-2.77-0.97l-2.85-0.7
			c-0.48-0.11-0.94-0.25-1.42-0.34l-1.45-0.21c-0.97-0.13-1.93-0.29-2.9-0.41l-2.93-0.12l-1.46-0.07l-1.57,0.01l-3.14,0.02
			l-12.58,0.08l-25.16,0.17l-50.32,0.33l-402.54,3.26l-2.67,0.17l-1.34,0.07c-0.44,0.05-0.88,0.14-1.32,0.21l-2.63,0.42
			c-0.86,0.2-1.72,0.46-2.58,0.67l-1.29,0.33c-0.42,0.13-0.83,0.31-1.25,0.46l-2.49,0.93l-2.39,1.16l-1.2,0.57l-1.13,0.7
			c-0.75,0.47-1.52,0.9-2.26,1.39l-2.14,1.58c-0.74,0.49-1.38,1.11-2.04,1.7c-0.64,0.61-1.36,1.14-1.95,1.8l-1.81,1.95l-0.46,0.48
			l-0.4,0.53l-0.81,1.06c-1.15,1.36-2.01,2.91-2.97,4.41c-0.47,0.75-0.8,1.58-1.21,2.36c-0.4,0.79-0.82,1.58-1.09,2.42l-0.95,2.49
			c-0.27,0.84-0.46,1.71-0.7,2.56l-0.35,1.28c-0.1,0.43-0.15,0.88-0.22,1.31l-0.43,2.63c-0.08,0.89-0.1,1.78-0.17,2.67l-0.09,1.33
			c-0.03,0.44-0.02,1.02-0.03,1.53l-0.18,25.16L24.5,298.29l-0.22,25.16l-0.05,6.29c0,1.03-0.03,2.13-0.01,3.11l0.12,2.76
			c0.03,0.46,0.02,0.92,0.07,1.38l0.2,1.36c0.14,0.91,0.24,1.82,0.4,2.73l0.67,2.68c0.12,0.44,0.2,0.9,0.35,1.34l0.47,1.3
			c1.1,3.53,2.94,6.77,4.95,9.87l1.65,2.23l0.41,0.56l0.47,0.51l0.93,1.03c1.18,1.44,2.62,2.62,3.97,3.9
			c0.7,0.61,1.47,1.13,2.2,1.71l1.11,0.85c0.37,0.28,0.79,0.49,1.18,0.74l2.37,1.47l2.5,1.23l1.25,0.62l1.31,0.49
			c0.87,0.32,1.74,0.67,2.62,0.98l2.7,0.72c0.45,0.11,0.9,0.26,1.35,0.35l1.38,0.22c0.92,0.14,1.84,0.31,2.77,0.44l2.81,0.17
			l1.4,0.09l1.57,0.02l3.14,0.03l12.58,0.12l25.16,0.25l50.32,0.49l201.27,2.08l50.32,0.48l50.32,0.35L561.14,379.04z"/>
	</g>
</g>
</svg>
